#!OML:ASF E:\Style4\Style4.ASF
:FULLY-SPECIFIED
:DEGREES
2674
root 0.132585 16.9022 -0.524303 -6.46937 -2.21494 2.48189
lowerback 7.18642 1.95366 -3.54236
upperback 3.61482 2.37282 -0.0720388
thorax -0.431759 1.14626 1.73349
lowerneck 0.517872 -4.53906 -5.61228
upperneck -4.54581 -5.91741 6.87504
head -1.13523 -2.97922 3.24323
rclavicle -1.1486e-014 2.88238e-015
rhumerus 23.4171 -7.95472 -68.4058
rradius 110.17
rwrist -61.2985
rhand -5.92611 22.7819
rfingers 7.12502
rthumb 19.9034 -6.21888
lclavicle -1.1486e-014 2.88238e-015
lhumerus 24.7713 3.87444 65.7577
lradius 114.379
lwrist 64.0192
lhand -1.20103 24.4746
lfingers 7.12502
lthumb 24.4395 52.9356
rfemur -13.4719 -1.69843 15.529
rtibia 49.9281
rfoot -27.2078 -15.1746
rtoes -15.1203
lfemur -11.3455 1.90785 -22.3684
ltibia 47.481
lfoot -28.7659 9.66722
ltoes -16.0301
2675
root 0.142466 16.9024 -0.517033 -6.37709 -2.26293 2.41288
lowerback 7.48158 1.9325 -3.53346
upperback 3.42965 2.32902 -0.0380591
thorax -0.78479 1.13199 1.7536
lowerneck 0.704736 -4.53519 -5.67343
upperneck -4.63769 -5.91765 6.90075
head -1.19553 -2.98178 3.27226
rclavicle 5.47279e-015 5.46658e-015
rhumerus 22.8514 -7.98173 -68.1418
rradius 111.216
rwrist -61.3922
rhand -5.815 24.0502
rfingers 7.12502
rthumb 20.0102 -4.93944
lclavicle 5.47279e-015 5.46658e-015
lhumerus 24.1332 4.21752 65.3843
lradius 115.428
lwrist 64.2404
lhand -1.38948 24.4083
lfingers 7.12502
lthumb 24.2588 52.8936
rfemur -13.5658 -1.63337 15.5869
rtibia 49.9691
rfoot -27.1853 -15.2292
rtoes -15.1308
lfemur -11.4502 2.0001 -22.3129
ltibia 47.542
lfoot -28.8479 9.64327
ltoes -16.0665
2676
root 0.151913 16.9002 -0.509734 -6.2887 -2.30276 2.50473
lowerback 7.69948 1.91198 -3.79264
upperback 3.28787 2.27201 0.0227929
thorax -1.05997 1.10731 1.95656
lowerneck 0.82919 -4.50944 -5.80071
upperneck -4.70829 -5.88939 6.89582
head -1.23906 -2.96741 3.30061
rclavicle 6.58474e-015 -1.98785e-016
rhumerus 22.3906 -8.02681 -67.8349
rradius 112.367
rwrist -61.6042
rhand -5.75453 24.314
rfingers 7.12502
rthumb 20.0683 -4.66962
lclavicle 6.58474e-015 -1.98785e-016
lhumerus 23.5179 4.64486 65.0729
lradius 116.376
lwrist 64.5607
lhand -1.55815 24.2285
lfingers 7.12502
lthumb 24.0971 52.7353
rfemur -13.7044 -1.59178 15.4499
rtibia 50.0455
rfoot -27.1875 -15.195
rtoes -15.3083
lfemur -11.5335 2.05816 -22.4455
ltibia 47.5692
lfoot -28.8873 9.5707
ltoes -15.7527
2677
root 0.162954 16.8983 -0.505035 -6.21783 -2.33468 2.57466
lowerback 7.82786 1.92543 -3.95435
upperback 3.22409 2.27151 0.0602406
thorax -1.20396 1.10912 2.0805
lowerneck 0.891868 -4.51591 -5.86636
upperneck -4.81618 -5.89935 6.87666
head -1.28315 -2.97193 3.31136
rclavicle 1.82633e-015 1.23246e-014
rhumerus 22.0456 -8.45617 -67.6223
rradius 113.588
rwrist -61.8694
rhand -5.51814 23.167
rfingers 7.12502
rthumb 20.2955 -5.79256
lclavicle 1.82633e-015 1.23246e-014
lhumerus 23.0814 4.97428 64.83
lradius 117.155
lwrist 64.7416
lhand -1.41385 24.0118
lfingers 7.12502
lthumb 24.2355 52.5002
rfemur -13.8466 -1.62078 15.3154
rtibia 50.1445
rfoot -27.204 -15.1042
rtoes -15.5487
lfemur -11.6141 2.13448 -22.5545
ltibia 47.6086
lfoot -28.8958 9.51319
ltoes -15.7118
2678
root 0.174734 16.8959 -0.501035 -6.12643 -2.37011 2.63974
lowerback 7.919 1.97214 -3.99377
upperback 3.1617 2.32411 0.0171125
thorax -1.32197 1.13827 2.04899
lowerneck 0.977754 -4.5664 -5.72698
upperneck -4.96079 -5.96549 6.78938
head -1.3469 -3.0072 3.26248
rclavicle -5.07025e-014 2.10712e-014
rhumerus 21.6511 -8.99177 -67.4302
rradius 114.638
rwrist -61.9524
rhand -5.28492 22.5345
rfingers 7.12502
rthumb 20.5196 -6.40107
lclavicle -5.07025e-014 2.10712e-014
lhumerus 22.7743 5.17681 64.6157
lradius 117.767
lwrist 64.8289
lhand -1.18363 23.9586
lfingers 7.12502
lthumb 24.4562 52.4174
rfemur -14.0177 -1.65128 15.1833
rtibia 50.258
rfoot -27.2467 -15.0197
rtoes -15.4686
lfemur -11.7379 2.24109 -22.6595
ltibia 47.6713
lfoot -28.8996 9.43892
ltoes -15.4506
2679
root 0.185544 16.8908 -0.49824 -6.04381 -2.41461 2.63981
lowerback 8.02921 2.01187 -3.93672
upperback 3.11533 2.37409 -0.0201391
thorax -1.43045 1.16614 1.96928
lowerneck 1.05934 -4.62917 -5.66116
upperneck -5.17326 -6.04458 6.77357
head -1.42708 -3.04895 3.25364
rclavicle 9.10061e-015 -1.71949e-014
rhumerus 21.3241 -9.39687 -67.2207
rradius 115.454
rwrist -61.8973
rhand -5.24889 22.4779
rfingers 7.12502
rthumb 20.5543 -6.45396
lclavicle 9.10061e-015 -1.71949e-014
lhumerus 22.4961 5.4368 64.4591
lradius 118.307
lwrist 64.9457
lhand -1.05996 24.045
lfingers 7.12502
lthumb 24.5747 52.4877
rfemur -14.168 -1.64657 15.1383
rtibia 50.3656
rfoot -27.2754 -14.966
rtoes -15.3638
lfemur -11.8784 2.35976 -22.6778
ltibia 47.7811
lfoot -28.9263 9.26457
ltoes -15.0729
2680
root 0.196347 16.8826 -0.495171 -6.01417 -2.47365 2.60605
lowerback 8.12897 2.02969 -3.8599
upperback 3.14004 2.39901 -0.0363093
thorax -1.458 1.17904 1.90436
lowerneck 0.989115 -4.68211 -5.70301
upperneck -5.33149 -6.10424 6.86102
head -1.45803 -3.07874 3.293
rclavicle 5.04602e-014 3.67752e-015
rhumerus 21.1475 -9.75486 -67.0553
rradius 116.135
rwrist -61.8715
rhand -5.21364 22.3625
rfingers 7.12502
rthumb 20.5881 -6.56571
lclavicle 5.04602e-014 3.67752e-015
lhumerus 22.2861 5.72975 64.2283
lradius 118.75
lwrist 65.0741
lhand -1.0072 23.8988
lfingers 7.12502
lthumb 24.6253 52.3347
rfemur -14.2636 -1.62924 15.1375
rtibia 50.471
rfoot -27.2402 -15.0262
rtoes -15.6836
lfemur -11.9674 2.45981 -22.6651
ltibia 47.9179
lfoot -28.9958 9.2095
ltoes -15.17
2681
root 0.207448 16.8748 -0.492498 -6.01141 -2.54617 2.54886
lowerback 8.22158 2.03356 -3.80305
upperback 3.18174 2.40551 -0.0112998
thorax -1.46529 1.18192 1.89548
lowerneck 0.850703 -4.7055 -5.73509
upperneck -5.41094 -6.12784 6.84527
head -1.457 -3.08759 3.29065
rclavicle -1.43498e-015 -2.01766e-014
rhumerus 21.0619 -10.0481 -66.8744
rradius 116.713
rwrist -61.8781
rhand -5.21346 22.3748
rfingers 7.12502
rthumb 20.5883 -6.55343
lclavicle -1.43498e-015 -2.01766e-014
lhumerus 22.0707 6.01073 63.9715
lradius 119.118
lwrist 65.2527
lhand -1.0113 23.7
lfingers 7.12502
lthumb 24.6214 52.1364
rfemur -14.321 -1.58562 15.1673
rtibia 50.564
rfoot -27.2135 -15.0595
rtoes -15.6625
lfemur -12.0309 2.58753 -22.6192
ltibia 48.0632
lfoot -29.0629 9.34472
ltoes -15.8613
2682
root 0.21611 16.8685 -0.491823 -5.99783 -2.62515 2.53937
lowerback 8.32392 2.04004 -3.85029
upperback 3.18972 2.40657 0.0294931
thorax -1.51706 1.18274 1.96068
lowerneck 0.784048 -4.71045 -5.73543
upperneck -5.52474 -6.13066 6.7659
head -1.48415 -3.08645 3.26442
rclavicle -3.76324e-014 4.77083e-015
rhumerus 20.9959 -10.2821 -66.6458
rradius 117.12
rwrist -61.848
rhand -5.30811 22.4906
rfingers 7.12502
rthumb 20.4974 -6.44737
lclavicle -3.76324e-014 4.77083e-015
lhumerus 21.8727 6.30499 63.7865
lradius 119.422
lwrist 65.4309
lhand -1.11666 23.6432
lfingers 7.12502
lthumb 24.5204 52.0933
rfemur -14.41 -1.49726 15.1647
rtibia 50.6493
rfoot -27.2036 -15.0576
rtoes -15.6314
lfemur -12.1045 2.73276 -22.609
ltibia 48.1798
lfoot -29.1615 9.35566
ltoes -16.1288
2683
root 0.224703 16.8645 -0.489088 -5.93977 -2.70525 2.56594
lowerback 8.34601 2.06851 -3.8849
upperback 3.17222 2.44006 0.0247267
thorax -1.55059 1.20007 1.97065
lowerneck 0.791243 -4.74189 -5.80449
upperneck -5.65355 -6.1679 6.82509
head -1.52105 -3.10497 3.30132
rclavicle 1.44802e-014 2.5842e-015
rhumerus 20.9094 -10.558 -66.4387
rradius 117.335
rwrist -61.7804
rhand -5.42636 22.4534
rfingers 7.12502
rthumb 20.3837 -6.49679
lclavicle 1.44802e-014 2.5842e-015
lhumerus 21.7333 6.50021 63.5743
lradius 119.643
lwrist 65.7408
lhand -1.0759 23.7479
lfingers 7.12502
lthumb 24.5595 52.1927
rfemur -14.5445 -1.39253 15.1204
rtibia 50.7165
rfoot -27.2062 -15.217
rtoes -16.0216
lfemur -12.202 2.84505 -22.6526
ltibia 48.2686
lfoot -29.1678 9.17631
ltoes -15.4176
2684
root 0.234305 16.8596 -0.485867 -5.94974 -2.7981 2.66623
lowerback 8.39893 2.11909 -3.98739
upperback 3.18967 2.49627 -0.00163079
thorax -1.56812 1.22774 1.99363
lowerneck 0.839468 -4.79246 -5.91155
upperneck -5.88773 -6.22772 6.93573
head -1.59547 -3.13562 3.36764
rclavicle 2.06239e-014 6.65929e-015
rhumerus 20.8406 -10.8306 -66.2402
rradius 117.417
rwrist -61.8322
rhand -5.58951 22.4353
rfingers 7.12502
rthumb 20.2269 -6.53157
lclavicle 2.06239e-014 6.65929e-015
lhumerus 21.6193 6.63133 63.3634
lradius 119.684
lwrist 65.8715
lhand -0.899238 23.7151
lfingers 7.12502
lthumb 24.7288 52.1368
rfemur -14.625 -1.32481 14.9732
rtibia 50.7839
rfoot -27.1181 -15.4749
rtoes -16.9121
lfemur -12.2088 2.95283 -22.7875
ltibia 48.3333
lfoot -29.1654 9.0641
ltoes -15.0215
